# xmcd
#
# Track frame offsets: 
#        150
#        11769
#        23943
#        36053
#        48752
#        60354
#        70719
#        84347
#        97001
#        108774
#        119413
#        130803
#        142363
#        153572
#        169478
#        181882
#        193798
#        210397
#        222615
#        232865
#        244718
#        257382
#        270755
#        281993
#        293396
#        305862
#        317147
#        328166
#        337766
#        347785
#
# Disc length: 4799 seconds
#
# Revision: 0
# Processed by: cddbd v1.5.1PL0 Copyright (c) Steve Scherf et al.
# Submitted via: ExactAudioCopy v0.95a5
#
DISCID=b612bd1e
DTITLE=Kanye West - Instrumentals King Volume 1 (Presented by J. Armz)
DTITLE=Various Artist - CD2
DYEAR=1900
DGENRE=Hip-Hop Instrumentals
TTITLE0=Takeover - Jay Z
TTITLE1=Wack Niggaz - Kanye West f. Talib Kweli
TTITLE2=Real Talk (Champions) - Cam'ron
TTITLE3=Un Kasa - The Diplomats f. Un Kasa
TTITLE4=Heart Of The City - Jay Z
TTITLE5=Dead Or Alive - Cam'ron
TTITLE6=Overnight Celebrity - Twista f. Kanye West
TTITLE7=Jesus Walks - Kanye West
TTITLE8=A Dream - Jay Z f. Faith Evans
TTITLE9=You Made Me - Harlem World
TTITLE10=Can't Live My - Dilated Peoples
TTITLE11=The Dog's Out - DMX
TTITLE12=2 Words - Kanye West
TTITLE13=All Falls Down - Kanye West f. S Johnson
TTITLE14=I Need To Know - Kanye West
TTITLE15=Tonight's The Night - Kanye West
TTITLE16=Knock, Knock - Monica
TTITLE17=Blueprint - Jay Z
TTITLE18=Georgeous - Kanye West
TTITLE19=Gangsta, Gangsta - Beanie Sigel
TTITLE20=Izzo - Jay Z
TTITLE21=Song Cry - Jay Z
TTITLE22=Lucifer - Jay Z
TTITLE23=You Don't Know My Name - Alicia Keys
TTITLE24=In Cold Blood - Scarface
TTITLE25=Hey Mama - Kanye West
TTITLE26=African Drum - Talib Kweli
TTITLE27=Encore - Jay Z
TTITLE28=Stand Up - Ludacris f. Shawna
TTITLE29=Through The Wire - Kanye West
EXTD=
EXTT0=
EXTT1=
EXTT2=
EXTT3=
EXTT4=
EXTT5=
EXTT6=
EXTT7=
EXTT8=
EXTT9=
EXTT10=
EXTT11=
EXTT12=
EXTT13=
EXTT14=
EXTT15=
EXTT16=
EXTT17=
EXTT18=
EXTT19=
EXTT20=
EXTT21=
EXTT22=
EXTT23=
EXTT24=
EXTT25=
EXTT26=
EXTT27=
EXTT28=
EXTT29=
PLAYORDER=
